{
    "asset" : {
        "generator" : "Khronos glTF Blender I/O v0.9.36",
        "version" : "2.0"
    },
    "scene" : 0,
    "scenes" : [
        {
            "name" : "Scene",
            "nodes" : [
                0,
                1,
                2,
                3,
                4,
                5,
                6,
                7,
                8
            ]
        }
    ],
    "nodes" : [
        {
            "mesh" : 0,
            "name" : "Circle.000",
            "rotation" : [
                0,
                -0.9449523687362671,
                0,
                0.3272079825401306
            ],
            "scale" : [
                0.7655367851257324,
                0.2264917641878128,
                0.7655367851257324
            ],
            "translation" : [
                -4.883355617523193,
                -0.3284932076931,
                3.0210704803466797
            ]
        },
        {
            "name" : "Sun.001",
            "rotation" : [
                0.20234829187393188,
                0.0019281634595245123,
                0.22022852301597595,
                0.954227864742279
            ],
            "translation" : [
                0.16060256958007812,
                16.507061004638672,
                8.568354606628418
            ]
        },
        {
            "mesh" : 1,
            "name" : "Plane.004",
            "rotation" : [
                -0.40944549441337585,
                -0.40944546461105347,
                -0.5765018463134766,
                -0.5765019059181213
            ],
            "scale" : [
                0.02885574847459793,
                -0.3621736168861389,
                -0.004103915765881538
            ],
            "translation" : [
                -4.806245803833008,
                3.256112575531006,
                3.018679618835449
            ]
        },
        {
            "mesh" : 2,
            "name" : "Circle.001",
            "scale" : [
                0.5542889833450317,
                0.16399197280406952,
                0.5542889833450317
            ],
            "translation" : [
                -5.090312957763672,
                0.23445439338684082,
                2.7493183612823486
            ]
        },
        {
            "name" : "Sun",
            "rotation" : [
                0.20234829187393188,
                0.0019281634595245123,
                0.22022852301597595,
                0.954227864742279
            ],
            "translation" : [
                -3.762838363647461,
                6.630354404449463,
                -2.982285261154175
            ]
        },
        {
            "mesh" : 3,
            "name" : "Plane.001",
            "rotation" : [
                0.12654925882816315,
                -0.1287079006433487,
                0.6956139206886292,
                -0.6953709721565247
            ],
            "scale" : [
                0.18441109359264374,
                0.36882221698760986,
                0.11874864250421524
            ],
            "translation" : [
                -3.15016770362854,
                0.07197663187980652,
                2.3592751026153564
            ]
        },
        {
            "name" : "Lamp",
            "rotation" : [
                0.16907575726509094,
                0.7558803558349609,
                -0.27217137813568115,
                0.570947527885437
            ],
            "translation" : [
                4.076245307922363,
                5.903861999511719,
                -1.0054539442062378
            ]
        },
        {
            "name" : "Camera",
            "rotation" : [
                -0.008649185299873352,
                -0.9712298512458801,
                0.23383007943630219,
                -0.044286128133535385
            ],
            "translation" : [
                -4.269068717956543,
                5.220449447631836,
                1.1559373140335083
            ]
        },
        {
            "name" : "Text",
            "rotation" : [
                0.0039692046120762825,
                0.7018070816993713,
                0.012125177308917046,
                0.7122527956962585
            ],
            "translation" : [
                -6.6013336181640625,
                1.0462225675582886,
                8.183589935302734
            ]
        }
    ],
    "materials" : [
        {
            "doubleSided" : true,
            "name" : "Material.007",
            "pbrMetallicRoughness" : {}
        },
        {
            "doubleSided" : true,
            "name" : "Material.008",
            "pbrMetallicRoughness" : {}
        },
        {
            "doubleSided" : true,
            "name" : "Material.004",
            "pbrMetallicRoughness" : {}
        },
        {
            "doubleSided" : true,
            "name" : "Material.003",
            "pbrMetallicRoughness" : {}
        },
        {
            "doubleSided" : true,
            "name" : "Material.002",
            "pbrMetallicRoughness" : {}
        },
        {
            "doubleSided" : true,
            "name" : "Material",
            "pbrMetallicRoughness" : {}
        },
        {
            "doubleSided" : true,
            "name" : "Material.001",
            "pbrMetallicRoughness" : {}
        }
    ],
    "meshes" : [
        {
            "name" : "Circle.000",
            "primitives" : [
                {
                    "attributes" : {
                        "POSITION" : 0,
                        "NORMAL" : 1
                    },
                    "indices" : 2,
                    "material" : 0
                },
                {
                    "attributes" : {
                        "POSITION" : 3,
                        "NORMAL" : 4
                    },
                    "indices" : 5,
                    "material" : 1
                }
            ]
        },
        {
            "name" : "Plane.012",
            "primitives" : [
                {
                    "attributes" : {
                        "POSITION" : 6,
                        "NORMAL" : 7
                    },
                    "indices" : 8,
                    "material" : 2
                },
                {
                    "attributes" : {
                        "POSITION" : 9,
                        "NORMAL" : 10
                    },
                    "indices" : 11,
                    "material" : 2
                },
                {
                    "attributes" : {
                        "POSITION" : 12,
                        "NORMAL" : 13
                    },
                    "indices" : 14,
                    "material" : 2
                },
                {
                    "attributes" : {
                        "POSITION" : 15,
                        "NORMAL" : 16
                    },
                    "indices" : 17,
                    "material" : 3
                }
            ]
        },
        {
            "name" : "Circle.001",
            "primitives" : [
                {
                    "attributes" : {
                        "POSITION" : 18,
                        "NORMAL" : 19
                    },
                    "indices" : 2,
                    "material" : 0
                },
                {
                    "attributes" : {
                        "POSITION" : 20,
                        "NORMAL" : 21
                    },
                    "indices" : 5,
                    "material" : 1
                }
            ]
        },
        {
            "name" : "Plane.002",
            "primitives" : [
                {
                    "attributes" : {
                        "POSITION" : 22,
                        "NORMAL" : 23
                    },
                    "indices" : 24,
                    "material" : 4
                },
                {
                    "attributes" : {
                        "POSITION" : 25,
                        "NORMAL" : 26
                    },
                    "indices" : 27,
                    "material" : 5
                },
                {
                    "attributes" : {
                        "POSITION" : 28,
                        "NORMAL" : 29
                    },
                    "indices" : 30,
                    "material" : 6
                }
            ]
        }
    ],
    "accessors" : [
        {
            "bufferView" : 0,
            "componentType" : 5126,
            "count" : 760,
            "max" : [
                3.3498661518096924,
                0.4320509433746338,
                3.3326048851013184
            ],
            "min" : [
                -3.4781317710876465,
                0.016901731491088867,
                -3.4953932762145996
            ],
            "type" : "VEC3"
        },
        {
            "bufferView" : 1,
            "componentType" : 5126,
            "count" : 760,
            "type" : "VEC3"
        },
        {
            "bufferView" : 2,
            "componentType" : 5123,
            "count" : 1362,
            "type" : "SCALAR"
        },
        {
            "bufferView" : 3,
            "componentType" : 5126,
            "count" : 152,
            "max" : [
                3.3498661518096924,
                0.4320509433746338,
                3.3326048851013184
            ],
            "min" : [
                -3.4781317710876465,
                0.4320509433746338,
                -3.4953932762145996
            ],
            "type" : "VEC3"
        },
        {
            "bufferView" : 4,
            "componentType" : 5126,
            "count" : 152,
            "type" : "VEC3"
        },
        {
            "bufferView" : 5,
            "componentType" : 5123,
            "count" : 450,
            "type" : "SCALAR"
        },
        {
            "bufferView" : 6,
            "componentType" : 5126,
            "count" : 65535,
            "max" : [
                24.883224487304688,
                0.5579753518104553,
                59.5351676940918
            ],
            "min" : [
                -63.06189727783203,
                -0.6659297943115234,
                -48.47535705566406
            ],
            "type" : "VEC3"
        },
        {
            "bufferView" : 7,
            "componentType" : 5126,
            "count" : 65535,
            "type" : "VEC3"
        },
        {
            "bufferView" : 8,
            "componentType" : 5123,
            "count" : 117606,
            "type" : "SCALAR"
        },
        {
            "bufferView" : 9,
            "componentType" : 5126,
            "count" : 1649,
            "max" : [
                -16.631454467773438,
                0.43456941843032837,
                47.98200988769531
            ],
            "min" : [
                -63.06189727783203,
                -0.5350174307823181,
                -36.922245025634766
            ],
            "type" : "VEC3"
        },
        {
            "bufferView" : 10,
            "componentType" : 5126,
            "count" : 1649,
            "type" : "VEC3"
        },
        {
            "bufferView" : 11,
            "componentType" : 5123,
            "count" : 3525,
            "type" : "SCALAR"
        },
        {
            "bufferView" : 12,
            "componentType" : 5126,
            "count" : 19,
            "max" : [
                -17.346210479736328,
                0.43332725763320923,
                1.935873031616211
            ],
            "min" : [
                -22.631607055664062,
                -0.2949908971786499,
                -35.68680191040039
            ],
            "type" : "VEC3"
        },
        {
            "bufferView" : 13,
            "componentType" : 5126,
            "count" : 19,
            "type" : "VEC3"
        },
        {
            "bufferView" : 14,
            "componentType" : 5123,
            "count" : 27,
            "type" : "SCALAR"
        },
        {
            "bufferView" : 15,
            "componentType" : 5126,
            "count" : 648,
            "max" : [
                -10.817115783691406,
                0.37085846066474915,
                42.47802734375
            ],
            "min" : [
                -61.862525939941406,
                -0.45555806159973145,
                -30.453857421875
            ],
            "type" : "VEC3"
        },
        {
            "bufferView" : 16,
            "componentType" : 5126,
            "count" : 648,
            "type" : "VEC3"
        },
        {
            "bufferView" : 17,
            "componentType" : 5123,
            "count" : 1284,
            "type" : "SCALAR"
        },
        {
            "bufferView" : 18,
            "componentType" : 5126,
            "count" : 760,
            "max" : [
                3.869840383529663,
                -2.330054521560669,
                3.851466178894043
            ],
            "min" : [
                -2.958157539367676,
                -2.745203733444214,
                -2.976531982421875
            ],
            "type" : "VEC3"
        },
        {
            "bufferView" : 19,
            "componentType" : 5126,
            "count" : 760,
            "type" : "VEC3"
        },
        {
            "bufferView" : 20,
            "componentType" : 5126,
            "count" : 152,
            "max" : [
                3.869840383529663,
                -2.330054521560669,
                3.851466178894043
            ],
            "min" : [
                -2.958157539367676,
                -2.330054521560669,
                -2.976531982421875
            ],
            "type" : "VEC3"
        },
        {
            "bufferView" : 21,
            "componentType" : 5126,
            "count" : 152,
            "type" : "VEC3"
        },
        {
            "bufferView" : 22,
            "componentType" : 5126,
            "count" : 10460,
            "max" : [
                1.5596626996994019,
                -1.7883497349657773e-08,
                6.579463958740234
            ],
            "min" : [
                -18.60557746887207,
                -4.474445819854736,
                -6.457530975341797
            ],
            "type" : "VEC3"
        },
        {
            "bufferView" : 23,
            "componentType" : 5126,
            "count" : 10460,
            "type" : "VEC3"
        },
        {
            "bufferView" : 24,
            "componentType" : 5123,
            "count" : 15714,
            "type" : "SCALAR"
        },
        {
            "bufferView" : 25,
            "componentType" : 5126,
            "count" : 10505,
            "max" : [
                1.5821670293807983,
                -4.070396900177002,
                -0.17980003356933594
            ],
            "min" : [
                -18.586584091186523,
                -7.96927547454834,
                -13.906905174255371
            ],
            "type" : "VEC3"
        },
        {
            "bufferView" : 26,
            "componentType" : 5126,
            "count" : 10505,
            "type" : "VEC3"
        },
        {
            "bufferView" : 27,
            "componentType" : 5123,
            "count" : 15777,
            "type" : "SCALAR"
        },
        {
            "bufferView" : 28,
            "componentType" : 5126,
            "count" : 10462,
            "max" : [
                1.7544491291046143,
                -4.042314529418945,
                13.184656143188477
            ],
            "min" : [
                -18.499515533447266,
                -7.869434833526611,
                -0.2232379913330078
            ],
            "type" : "VEC3"
        },
        {
            "bufferView" : 29,
            "componentType" : 5126,
            "count" : 10462,
            "type" : "VEC3"
        },
        {
            "bufferView" : 30,
            "componentType" : 5123,
            "count" : 15714,
            "type" : "SCALAR"
        }
    ],
    "bufferViews" : [
        {
            "buffer" : 0,
            "byteLength" : 9120,
            "byteOffset" : 0
        },
        {
            "buffer" : 0,
            "byteLength" : 9120,
            "byteOffset" : 9120
        },
        {
            "buffer" : 0,
            "byteLength" : 2724,
            "byteOffset" : 18240
        },
        {
            "buffer" : 0,
            "byteLength" : 1824,
            "byteOffset" : 20964
        },
        {
            "buffer" : 0,
            "byteLength" : 1824,
            "byteOffset" : 22788
        },
        {
            "buffer" : 0,
            "byteLength" : 900,
            "byteOffset" : 24612
        },
        {
            "buffer" : 0,
            "byteLength" : 786420,
            "byteOffset" : 25512
        },
        {
            "buffer" : 0,
            "byteLength" : 786420,
            "byteOffset" : 811932
        },
        {
            "buffer" : 0,
            "byteLength" : 235212,
            "byteOffset" : 1598352
        },
        {
            "buffer" : 0,
            "byteLength" : 19788,
            "byteOffset" : 1833564
        },
        {
            "buffer" : 0,
            "byteLength" : 19788,
            "byteOffset" : 1853352
        },
        {
            "buffer" : 0,
            "byteLength" : 7050,
            "byteOffset" : 1873140
        },
        {
            "buffer" : 0,
            "byteLength" : 228,
            "byteOffset" : 1880192
        },
        {
            "buffer" : 0,
            "byteLength" : 228,
            "byteOffset" : 1880420
        },
        {
            "buffer" : 0,
            "byteLength" : 54,
            "byteOffset" : 1880648
        },
        {
            "buffer" : 0,
            "byteLength" : 7776,
            "byteOffset" : 1880704
        },
        {
            "buffer" : 0,
            "byteLength" : 7776,
            "byteOffset" : 1888480
        },
        {
            "buffer" : 0,
            "byteLength" : 2568,
            "byteOffset" : 1896256
        },
        {
            "buffer" : 0,
            "byteLength" : 9120,
            "byteOffset" : 1898824
        },
        {
            "buffer" : 0,
            "byteLength" : 9120,
            "byteOffset" : 1907944
        },
        {
            "buffer" : 0,
            "byteLength" : 1824,
            "byteOffset" : 1917064
        },
        {
            "buffer" : 0,
            "byteLength" : 1824,
            "byteOffset" : 1918888
        },
        {
            "buffer" : 0,
            "byteLength" : 125520,
            "byteOffset" : 1920712
        },
        {
            "buffer" : 0,
            "byteLength" : 125520,
            "byteOffset" : 2046232
        },
        {
            "buffer" : 0,
            "byteLength" : 31428,
            "byteOffset" : 2171752
        },
        {
            "buffer" : 0,
            "byteLength" : 126060,
            "byteOffset" : 2203180
        },
        {
            "buffer" : 0,
            "byteLength" : 126060,
            "byteOffset" : 2329240
        },
        {
            "buffer" : 0,
            "byteLength" : 31554,
            "byteOffset" : 2455300
        },
        {
            "buffer" : 0,
            "byteLength" : 125544,
            "byteOffset" : 2486856
        },
        {
            "buffer" : 0,
            "byteLength" : 125544,
            "byteOffset" : 2612400
        },
        {
            "buffer" : 0,
            "byteLength" : 31428,
            "byteOffset" : 2737944
        }
    ],
    "buffers" : [
        {
            "byteLength" : 2769372,
            "uri" : "data:application/octet-stream;base64,"
        }
    ]
}
